<svg xmlns="http://www.w3.org/2000/svg" viewBox="0 0 740 180" width="740" height="180">
  <rect width="740" height="180" rx="10" fill="#1E1B19"/>

  <!-- Labels -->
  <text x="24" y="30" font-family="'Menlo', 'Monaco', monospace" font-size="11" fill="#9A8E84">Normal</text>
  <text x="24" y="120" font-family="'Menlo', 'Monaco', monospace" font-size="11" fill="#9A8E84">Bright</text>

  <!-- Normal colors row -->
  <g transform="translate(24, 42)">
    <rect x="0" y="0" width="78" height="56" rx="6" fill="#2B2523" stroke="#4A3F3A" stroke-width="1"/>
    <text x="39" y="36" font-family="'Menlo', monospace" font-size="9" fill="#9A8E84" text-anchor="middle">#2B2523</text>

    <rect x="88" y="0" width="78" height="56" rx="6" fill="#E06C75"/>
    <text x="127" y="36" font-family="'Menlo', monospace" font-size="9" fill="#2B2523" text-anchor="middle">#E06C75</text>

    <rect x="176" y="0" width="78" height="56" rx="6" fill="#98C379"/>
    <text x="215" y="36" font-family="'Menlo', monospace" font-size="9" fill="#2B2523" text-anchor="middle">#98C379</text>

    <rect x="264" y="0" width="78" height="56" rx="6" fill="#D97757"/>
    <text x="303" y="36" font-family="'Menlo', monospace" font-size="9" fill="#2B2523" text-anchor="middle">#D97757</text>

    <rect x="352" y="0" width="78" height="56" rx="6" fill="#7AADCF"/>
    <text x="391" y="36" font-family="'Menlo', monospace" font-size="9" fill="#2B2523" text-anchor="middle">#7AADCF</text>

    <rect x="440" y="0" width="78" height="56" rx="6" fill="#C678DD"/>
    <text x="479" y="36" font-family="'Menlo', monospace" font-size="9" fill="#2B2523" text-anchor="middle">#C678DD</text>

    <rect x="528" y="0" width="78" height="56" rx="6" fill="#56B6C2"/>
    <text x="567" y="36" font-family="'Menlo', monospace" font-size="9" fill="#2B2523" text-anchor="middle">#56B6C2</text>

    <rect x="616" y="0" width="78" height="56" rx="6" fill="#E8DDD3"/>
    <text x="655" y="36" font-family="'Menlo', monospace" font-size="9" fill="#2B2523" text-anchor="middle">#E8DDD3</text>
  </g>

  <!-- Bright colors row -->
  <g transform="translate(24, 132)">
    <rect x="0" y="0" width="78" height="36" rx="6" fill="#4A3F3A"/>
    <text x="39" y="23" font-family="'Menlo', monospace" font-size="9" fill="#E8DDD3" text-anchor="middle">#4A3F3A</text>

    <rect x="88" y="0" width="78" height="36" rx="6" fill="#FF8A80"/>
    <text x="127" y="23" font-family="'Menlo', monospace" font-size="9" fill="#2B2523" text-anchor="middle">#FF8A80</text>

    <rect x="176" y="0" width="78" height="36" rx="6" fill="#A8D98A"/>
    <text x="215" y="23" font-family="'Menlo', monospace" font-size="9" fill="#2B2523" text-anchor="middle">#A8D98A</text>

    <rect x="264" y="0" width="78" height="36" rx="6" fill="#FFB38A"/>
    <text x="303" y="23" font-family="'Menlo', monospace" font-size="9" fill="#2B2523" text-anchor="middle">#FFB38A</text>

    <rect x="352" y="0" width="78" height="36" rx="6" fill="#8AC0E0"/>
    <text x="391" y="23" font-family="'Menlo', monospace" font-size="9" fill="#2B2523" text-anchor="middle">#8AC0E0</text>

    <rect x="440" y="0" width="78" height="36" rx="6" fill="#D89AEF"/>
    <text x="479" y="23" font-family="'Menlo', monospace" font-size="9" fill="#2B2523" text-anchor="middle">#D89AEF</text>

    <rect x="528" y="0" width="78" height="36" rx="6" fill="#6CC8D4"/>
    <text x="567" y="23" font-family="'Menlo', monospace" font-size="9" fill="#2B2523" text-anchor="middle">#6CC8D4</text>

    <rect x="616" y="0" width="78" height="36" rx="6" fill="#F5EDE6"/>
    <text x="655" y="23" font-family="'Menlo', monospace" font-size="9" fill="#2B2523" text-anchor="middle">#F5EDE6</text>
  </g>
</svg>
